<svg width="210" height="40" viewBox="0 0 210 40" fill="none" xmlns="http://www.w3.org/2000/svg">
<mask id="mask0_1_212" style="mask-type:alpha" maskUnits="userSpaceOnUse" x="0" y="0" width="210" height="40">
<path d="M105.001 3.33325C98.7342 3.33325 93.6675 8.39989 93.6675 14.6666C93.6675 20.9333 98.7342 25.9999 105.001 25.9999C111.267 25.9999 116.334 20.9333 116.334 14.6665C116.334 8.39982 111.268 3.33325 105.001 3.33325ZM105.001 24.6665C99.4675 24.6665 95.0009 20.1999 95.0009 14.6665C95.0009 9.13317 99.4675 4.66653 105.001 4.66653C110.534 4.66653 115.001 9.13317 115.001 14.6665C115.001 20.1999 110.534 24.6665 105.001 24.6665Z" fill="black"/>
<path d="M112.801 14.2001L105.467 6.86675C105.334 6.73339 105.201 6.66675 105.001 6.66675C104.801 6.66675 104.667 6.73339 104.534 6.86675L97.2009 14.2001C96.9342 14.4667 96.9342 14.8667 97.2009 15.1335L99.2009 17.1335C99.3342 17.2668 99.4675 17.3335 99.6675 17.3335C99.8675 17.3335 100.001 17.2668 100.134 17.1335L100.334 16.9335V20.0001C100.334 20.4001 100.601 20.6667 101.001 20.6667H109.001C109.401 20.6667 109.667 20.4001 109.667 20.0001V16.9335L109.867 17.1335C110.001 17.2668 110.134 17.3335 110.334 17.3335C110.534 17.3335 110.667 17.2668 110.801 17.1335L112.801 15.1335C112.934 15.0001 113.001 14.8668 113.001 14.6668C113.001 14.4668 112.934 14.3335 112.801 14.2001ZM108.334 19.3335H101.668V15.6001L105.001 12.2667L108.334 15.6001L108.334 19.3335ZM110.334 15.7335L109.468 14.8668L105.468 10.8668C105.401 10.7335 105.268 10.6668 105.134 10.6668C105.134 10.6668 105.068 10.6668 105.001 10.6668C104.801 10.6668 104.667 10.7335 104.534 10.8668L100.534 14.8668L99.6676 15.7335L98.6009 14.6668L105.001 8.26683L111.401 14.6668L110.334 15.7335Z" fill="black"/>
<path d="M115.401 4.26664C112.601 1.53336 108.934 0 105.001 0C101.067 0 97.4009 1.53336 94.6009 4.26664C89.6009 9.33328 88.8675 17.2666 93.0009 23.0666L98.7342 31.1333L104.468 39.7333C104.601 39.8666 104.801 39.9999 105.001 39.9999C105.201 39.9999 105.401 39.8666 105.601 39.6666L111.534 30.8666L116.868 23.3332C121.134 17.5334 120.468 9.33336 115.401 4.26664ZM115.734 22.6L110.401 30.1334L105.001 38.1334L99.8009 30.4L94.0675 22.3334C90.3342 17 91.0009 9.8 95.6009 5.26664C98.0675 2.73328 101.467 1.33328 105.001 1.33328C108.534 1.33328 111.934 2.73328 114.401 5.26664C119.068 9.86664 119.601 17.3334 115.734 22.6Z" fill="black"/>
</mask>
<g mask="url(#mask0_1_212)">
<rect width="210" height="40" fill="#D48D1C"/>
</g>
</svg>
