<svg width="210" height="40" viewBox="0 0 210 40" fill="none" xmlns="http://www.w3.org/2000/svg">
<mask id="mask0_1_242" style="mask-type:alpha" maskUnits="userSpaceOnUse" x="0" y="0" width="210" height="40">
<g clip-path="url(#clip0_1_242)">
<path d="M124.614 24.5333C123.414 22.9333 122.214 22.9333 119.28 24.4666L113.547 27.9999C112.747 28.4665 110.947 28.5999 109.28 28.5999C109.614 27.9999 109.48 27.2665 108.88 26.3999C107.814 24.8665 106.014 23.9333 104.08 23.9333H101.48C100.08 23.9333 98.7469 23.5333 97.6802 22.7333C95.2747 20.9291 91.513 22.8922 89.6802 24.0632V22.6666H85.0136V39.9999H89.6802V37.9999H98.3469C99.6802 37.9999 101.08 37.8665 102.414 37.7333L111.08 36.3999C111.414 36.3999 111.747 36.3333 112.014 36.2665C112.814 36.1332 113.547 35.7332 114.214 35.1332L124.28 27.1999C125.08 26.5333 125.214 25.3333 124.614 24.5333ZM88.3469 38.6665H86.3469V23.9999H88.3469V24.9999V37.9999V38.6665ZM123.48 26.3333L113.347 34.1999L113.28 34.2665C112.814 34.6665 112.347 34.9332 111.814 34.9999H111.747C111.48 35.0665 111.28 35.0665 111.014 35.0665L102.214 36.3999C100.947 36.5999 99.6136 36.6665 98.347 36.6665H89.6802V25.6665C91.2802 24.5332 95.0136 22.3999 96.8802 23.8665C98.1469 24.7999 99.7469 25.3332 101.48 25.3332H104.08C105.614 25.3332 107.014 25.9998 107.88 27.3332C108.147 27.7332 108.214 28.1332 108.147 28.2665C107.947 28.5999 107.147 28.7332 106.28 28.7999C106.095 28.7999 105.91 28.7999 105.747 28.7999C105.675 28.7999 105.608 28.7999 105.547 28.7999H99.2802C97.2136 28.7999 95.9469 29.7999 95.9469 31.4665C95.9469 31.8665 96.2135 32.1332 96.6135 32.1332C97.0135 32.1332 97.2802 31.8665 97.2802 31.4665C97.2802 31.1332 97.2802 30.1332 99.2802 30.1332H105.48C105.558 30.1332 105.645 30.1332 105.747 30.1332C105.907 30.1332 106.102 30.1332 106.347 30.1332C106.413 30.1332 106.547 30.1332 106.68 30.1332C109.814 30.1998 112.747 30.1332 114.28 29.3332L120.014 25.7998C122.814 24.3998 123.08 24.7332 123.614 25.5332C123.747 25.7333 123.747 26.1333 123.48 26.3333Z" fill="black"/>
<path d="M115.014 8.00003C116.48 8.00003 117.68 6.80003 117.68 5.33339C117.68 3.86675 116.48 2.66675 115.014 2.66675C113.547 2.66675 112.347 3.86675 112.347 5.33339C112.347 6.80003 113.547 8.00003 115.014 8.00003ZM115.014 4.00003C115.747 4.00003 116.347 4.60003 116.347 5.33339C116.347 6.06675 115.747 6.66675 115.014 6.66675C114.28 6.66675 113.68 6.06675 113.68 5.33339C113.68 4.60003 114.28 4.00003 115.014 4.00003Z" fill="black"/>
<path d="M99.0136 20.7333C99.0802 21.0666 99.347 21.2666 99.6802 21.2666H103.014C103.414 21.2666 103.68 21 103.747 20.7333V18.7333H106.414C106.814 18.7333 107.08 18.4666 107.08 18.0666V16.0666H109.08C109.48 16.0666 109.747 15.8 109.747 15.4V13.4H111.747C111.947 13.4 112.147 13.2666 112.28 13.1334C112.28 13.1334 112.834 12.479 113.329 11.9137C113.66 11.9695 113.999 12 114.347 12C117.68 12 120.347 9.33336 120.347 6C120.347 2.66664 117.68 0 114.347 0C111.014 0 108.347 2.66664 108.347 6C108.347 6.39375 108.385 6.77773 108.456 7.14953L98.5469 16.7999C98.3469 16.9333 98.2802 17.1999 98.3469 17.3999L99.0136 20.7333ZM114.347 1.33328C116.947 1.33328 119.014 3.39992 119.014 5.99992C119.014 8.59992 116.947 10.6666 114.347 10.6666C113.937 10.6666 113.541 10.6151 113.164 10.5186C111.522 10.0409 110.276 8.78398 109.88 7.19992C109.861 7.14336 109.831 7.08719 109.794 7.03359C109.72 6.70148 109.68 6.35594 109.68 5.99992C109.68 3.39992 111.747 1.33328 114.347 1.33328ZM108.88 8.53328C109.018 8.82414 109.181 9.10016 109.365 9.36125C109.367 9.36391 109.369 9.36656 109.371 9.36922C109.39 9.3968 109.409 9.42461 109.429 9.45188C110.024 10.3013 110.834 10.987 111.783 11.432C111.6 11.6211 111.473 11.807 111.347 11.9332H109.014C108.614 11.9332 108.347 12.1998 108.347 12.5998V14.5998H106.347C105.947 14.5998 105.68 14.8665 105.68 15.2665V17.2665H103.014C102.614 17.2665 102.347 17.5331 102.347 17.9331V19.9331H100.214L99.747 17.5331L108.88 8.53328Z" fill="black"/>
</g>
</mask>
<g mask="url(#mask0_1_242)">
<rect width="210" height="40" fill="#D48D1C"/>
</g>
<defs>
<clipPath id="clip0_1_242">
<rect width="40" height="40" fill="white" transform="translate(85)"/>
</clipPath>
</defs>
</svg>
