<svg width="210" height="40" viewBox="0 0 210 40" fill="none" xmlns="http://www.w3.org/2000/svg">
<mask id="mask0_1_181" style="mask-type:alpha" maskUnits="userSpaceOnUse" x="0" y="0" width="210" height="40">
<g clip-path="url(#clip0_1_181)">
<path d="M124.605 24.5398C123.406 22.9405 122.206 22.9405 119.274 24.4732L118.541 24.9249V13.2778H121.207C121.473 13.2778 121.74 13.1445 121.806 12.878C121.873 12.6115 121.806 12.3449 121.607 12.1449L109.612 1.34944C107.546 -0.449813 104.547 -0.449813 102.548 1.34944L90.6195 12.2116C90.4196 12.4115 90.353 12.678 90.4196 12.9446C90.4862 13.1445 90.7528 13.3444 91.0194 13.3444H93.7516V22.2167C92.1804 22.6016 90.661 23.4474 89.6866 24.0699V22.6739H85.0219V40.0001H89.6866V38.0009H98.3496C99.6824 38.0009 101.082 37.8676 102.415 37.7344L111.078 36.4016C111.411 36.4016 111.744 36.335 112.011 36.2683C112.81 36.135 113.543 35.7351 114.21 35.1354L124.272 27.2053C125.072 26.539 125.205 25.3395 124.605 24.5398ZM92.752 12.0116L103.414 2.34902C104.947 1.01622 107.213 1.01622 108.679 2.34902L119.341 12.0116H117.742C117.342 12.0116 117.075 12.2782 117.075 12.678V25.8283L113.543 28.0049C112.76 28.4621 111.016 28.5991 109.378 28.6044C109.666 28.0172 109.523 27.3043 108.945 26.4056C107.879 24.8729 106.08 23.94 104.147 23.94H104.081H101.548C100.149 23.94 98.816 23.5401 97.7498 22.7405C97.0168 22.2073 96.1505 21.9408 95.0843 22.0074V12.6781C95.0843 12.2783 94.8178 12.0117 94.4179 12.0117L92.752 12.0116ZM88.3538 38.6673H86.3547V24.0067H88.3538V25.0062V38.0008V38.6673ZM123.473 26.339L113.343 34.2024L113.277 34.269C112.81 34.6689 112.344 34.9354 111.811 35.0021H111.744C111.478 35.0687 111.278 35.0687 111.011 35.0687L102.215 36.4015C100.949 36.6014 99.6159 36.668 98.3497 36.668H89.6866V25.6726C90.6999 24.9549 92.5691 23.8363 94.2775 23.4854C94.3643 23.5058 94.4577 23.5048 94.5513 23.4735C95.1583 23.3926 95.691 23.3861 96.1505 23.4973C96.4165 23.5777 96.6633 23.7001 96.8837 23.8733C98.1498 24.8063 99.7492 25.3394 101.482 25.3394H101.548H104.081C105.613 25.3394 106.946 26.0057 107.879 27.3385C108.058 27.6071 108.147 27.8754 108.166 28.0631C108.162 28.0931 108.155 28.1188 108.146 28.1382C108.012 28.4047 107.346 28.6714 106.213 28.6714C106.057 28.6714 105.921 28.7227 105.814 28.8047C105.717 28.8047 105.626 28.8047 105.547 28.8047H99.8157C97.7499 28.8047 96.4837 29.8042 96.4837 31.4702C96.4837 31.87 96.7503 32.1366 97.1501 32.1366C97.5499 32.1366 97.8165 31.87 97.8165 31.4702C97.8165 31.137 97.8164 30.1374 99.8156 30.1374H105.48C105.668 30.1374 105.917 30.1374 106.28 30.1374C106.302 30.1374 106.323 30.1374 106.346 30.1374C106.413 30.1374 106.546 30.1374 106.679 30.1374C109.811 30.204 112.744 30.1374 114.276 29.3377L120.007 25.8058C122.806 24.4064 123.073 24.7396 123.606 25.5393C123.739 25.7393 123.739 26.1391 123.473 26.339Z" fill="black"/>
<path d="M102.348 14.0108C103.814 14.0108 105.014 12.8112 105.014 11.3452C105.014 9.87919 103.814 8.67969 102.348 8.67969C100.882 8.67969 99.6825 9.87919 99.6825 11.3452C99.6825 12.8112 100.882 14.0108 102.348 14.0108ZM102.348 10.0124C103.081 10.0124 103.681 10.6122 103.681 11.3452C103.681 12.0783 103.081 12.678 102.348 12.678C101.615 12.678 101.015 12.0783 101.015 11.3452C101.015 10.6122 101.615 10.0124 102.348 10.0124Z" fill="black"/>
<path d="M110.345 16.6765C108.879 16.6765 107.679 17.876 107.679 19.342C107.679 20.8081 108.879 22.0076 110.345 22.0076C111.811 22.0076 113.01 20.8081 113.01 19.342C113.01 17.876 111.811 16.6765 110.345 16.6765ZM110.345 20.6749C109.612 20.6749 109.012 20.0751 109.012 19.342C109.012 18.609 109.612 18.0092 110.345 18.0092C111.078 18.0092 111.677 18.609 111.677 19.342C111.677 20.0751 111.078 20.6749 110.345 20.6749Z" fill="black"/>
<path d="M100.349 22.0075C100.549 22.0075 100.682 21.9409 100.815 21.8076L112.81 9.81259C113.077 9.54606 113.077 9.14622 112.81 8.87961C112.544 8.61301 112.144 8.61308 111.877 8.87961L99.8823 20.8746C99.6158 21.1412 99.6158 21.541 99.8823 21.8076C100.016 21.9409 100.149 22.0075 100.349 22.0075Z" fill="black"/>
</g>
</mask>
<g mask="url(#mask0_1_181)">
<rect width="210" height="40" fill="#D48D1C"/>
</g>
<defs>
<clipPath id="clip0_1_181">
<rect width="40" height="40" fill="white" transform="translate(85)"/>
</clipPath>
</defs>
</svg>
