<svg width="210" height="40" viewBox="0 0 210 40" fill="none" xmlns="http://www.w3.org/2000/svg">
<mask id="mask0_1_272" style="mask-type:alpha" maskUnits="userSpaceOnUse" x="0" y="0" width="210" height="40">
<path d="M123 6.66675H87C85.8955 6.66675 85 7.56222 85 8.66675V31.3334C85 32.4379 85.8954 33.3334 87 33.3334H123C124.105 33.3334 125 32.4379 125 31.3334V8.66675C125 7.56222 124.105 6.66675 123 6.66675ZM123.667 31.3335C123.667 31.7017 123.368 32.0001 123 32.0001H105.667V10.6667C105.667 10.2985 105.368 10.0001 105 10.0001C104.632 10.0001 104.333 10.2985 104.333 10.6667V32.0001H87C86.6318 32.0001 86.3334 31.7016 86.3334 31.3335V8.66675C86.3334 8.29854 86.6318 8.00011 87 8.00011H123C123.368 8.00011 123.667 8.29854 123.667 8.66675V31.3335Z" fill="black"/>
<path d="M95 20.6669H96.3333C98.1733 20.6647 99.6644 19.1736 99.6667 17.3335V14.6669C99.6645 12.8269 98.1734 11.3358 96.3333 11.3335H95C93.16 11.3357 91.6689 12.8268 91.6666 14.6669V17.3335C91.6689 19.1736 93.16 20.6647 95 20.6669ZM93 14.6669C93 13.5623 93.8954 12.6669 95 12.6669H96.3333C97.4379 12.6669 98.3333 13.5622 98.3333 14.6669V17.3335C98.3333 18.4381 97.4379 19.3335 96.3333 19.3335H95C93.8955 19.3335 93 18.4381 93 17.3335V14.6669Z" fill="black"/>
<path d="M98.49 22H92.8434C91.047 22.0462 89.6264 23.5368 89.6667 25.3334V28.6667C89.6667 29.0349 89.9652 29.3334 90.3334 29.3334C90.7016 29.3334 91 29.0349 91 28.6667V25.3334C90.9598 24.2732 91.7834 23.3795 92.8434 23.3334H98.49C99.5499 23.3795 100.374 24.2731 100.333 25.3334V28H97.8627C97.4945 28 97.196 28.2984 97.196 28.6666C97.196 29.0348 97.4945 29.3333 97.8627 29.3333H101C101.368 29.3333 101.667 29.0348 101.667 28.6666V25.3333C101.707 23.5368 100.286 22.0462 98.49 22Z" fill="black"/>
<path d="M120.333 12H108.333C107.965 12 107.667 12.2984 107.667 12.6666C107.667 13.0348 107.965 13.3333 108.333 13.3333H120.333C120.702 13.3333 121 13.0348 121 12.6666C121 12.2984 120.702 12 120.333 12Z" fill="black"/>
<path d="M120.333 16H108.333C107.965 16 107.667 16.2984 107.667 16.6666C107.667 17.0348 107.965 17.3333 108.333 17.3333H120.333C120.702 17.3333 121 17.0348 121 16.6666C121 16.2984 120.702 16 120.333 16Z" fill="black"/>
<path d="M120.333 20H108.333C107.965 20 107.667 20.2984 107.667 20.6666C107.667 21.0348 107.965 21.3333 108.333 21.3333H120.333C120.702 21.3333 121 21.0348 121 20.6666C121 20.2984 120.702 20 120.333 20Z" fill="black"/>
<path d="M120.333 24H114.333C113.965 24 113.667 24.2984 113.667 24.6666C113.667 25.0348 113.965 25.3333 114.333 25.3333H120.333C120.702 25.3333 121 25.0348 121 24.6666C121 24.2984 120.702 24 120.333 24Z" fill="black"/>
</mask>
<g mask="url(#mask0_1_272)">
<rect width="210" height="40" fill="#D48D1C"/>
</g>
</svg>
